<svg xmlns="http://www.w3.org/2000/svg" viewBox="0 0 64 64"><defs><linearGradient id="b" x1="8" y1="8" x2="56" y2="56"><stop stop-color="#fff"/><stop offset="1" stop-color="#1687ff"/></linearGradient></defs><rect width="64" height="64" rx="15" fill="#03070f"/><path d="M9 35c7-20 25-31 39-27 6 2 10 6 12 12" fill="none" stroke="#087cff" stroke-width="3" stroke-linecap="round"/><path d="M55 29c-6 20-25 31-40 27-6-2-10-6-12-12" fill="none" stroke="#fff" stroke-width="2" opacity=".75" stroke-linecap="round"/><path d="M18 14h9v15l8-12 8 4-11 15 11 14h-10l-8-12v12h-9z" fill="url(#b)"/><path d="M37 14h9v14l-5 7-4-7z" fill="#1687ff"/><path d="M53 12l2 5 5 2-5 2-2 5-2-5-5-2 5-2z" fill="#fff"/></svg>