<svg xmlns="http://www.w3.org/2000/svg" viewBox="0 0 400 400"><defs><linearGradient id="c" x1="0" y1="0" x2="1" y2="1"><stop stop-color="#bff8ff"/><stop offset=".28" stop-color="#27e7ff"/><stop offset=".62" stop-color="#1688ff"/><stop offset="1" stop-color="#6a5cff"/></linearGradient><filter id="g"><feGaussianBlur stdDeviation="10"/></filter></defs><circle cx="200" cy="200" r="174" fill="#07152b" stroke="#19dfff" stroke-width="8"/><circle cx="200" cy="200" r="142" fill="#08254a" stroke="#527cff" stroke-width="3" opacity=".95"/><circle cx="200" cy="200" r="122" fill="#0a1631" stroke="#19dfff" stroke-width="2" opacity=".8"/><circle cx="200" cy="200" r="112" fill="#1adfff" opacity=".16" filter="url(#g)"/><g fill="none" stroke="url(#c)" stroke-linecap="round" stroke-linejoin="round"><path d="M92 142C58 99 108 61 140 92C166 117 147 153 119 169C88 187 88 219 110 239" stroke-width="18"/><path d="M308 142C342 99 292 61 260 92C234 117 253 153 281 169C312 187 312 219 290 239" stroke-width="18"/><path d="M101 270C67 307 111 347 145 318C169 298 157 269 132 255" stroke-width="14"/><path d="M299 270C333 307 289 347 255 318C231 298 243 269 268 255" stroke-width="14"/></g><path d="M112 72H162V163H238V72H288V328H238V213H162V328H112Z" fill="url(#c)" stroke="#e8fdff" stroke-width="4"/><path d="M162 163H238V213H162Z" fill="#1688ff"/><path d="M162 163H238V177H162Z" fill="#ffffff" opacity=".9"/><g fill="#48efff"><circle cx="66" cy="93" r="6"/><circle cx="334" cy="93" r="6"/><circle cx="62" cy="311" r="5"/><circle cx="338" cy="311" r="5"/></g></svg>