<svg xmlns="http://www.w3.org/2000/svg" viewBox="0 0 420 110"><defs><linearGradient id="f" x1="0" y1="0" x2="1" y2="1"><stop stop-color="#fff"/><stop offset=".45" stop-color="#67b8ff"/><stop offset="1" stop-color="#1687ff"/></linearGradient><linearGradient id="e" x1="0" y1="0" x2="1" y2="1"><stop stop-color="#1687ff"/><stop offset="1" stop-color="#00e676"/></linearGradient><filter id="s"><feDropShadow dx="0" dy="5" stdDeviation="5" flood-color="#000" flood-opacity=".6"/></filter></defs><rect x="3" y="3" width="104" height="104" rx="28" fill="#02060d" stroke="#1687ff" stroke-opacity=".7" stroke-width="2"/><g filter="url(#s)"><path d="M31 32h18v30l14-23 17 9-20 27 21 30H77L62 84v21H30V32z" fill="#0756ad" transform="translate(4 5)"/><path d="M27 27h18v30l14-23 17 9-20 27 21 30H73L58 79v21H26V27z" fill="url(#f)"/><path d="M69 27h19v30l-10 14-9-14z" fill="url(#e)"/><path d="M88 20l3 7 7 3-7 3-3 7-3-7-7-3 7-3z" fill="#fff"/></g><text x="128" y="61" font-family="Arial,sans-serif" font-size="39" font-weight="900" letter-spacing="1" fill="#fff">HAx<tspan fill="#35e989">BRO</tspan></text><text x="130" y="84" font-family="Arial,sans-serif" font-size="11" font-weight="700" letter-spacing="4" fill="#8da3bd">AI · PERSONAL INTELLIGENCE SYSTEM</text></svg>