<svg xmlns="http://www.w3.org/2000/svg" viewBox="0 0 192 192"><defs><linearGradient id="b" x1="25" y1="20" x2="170" y2="170"><stop stop-color="#fff"/><stop offset=".55" stop-color="#bcdcff"/><stop offset="1" stop-color="#1687ff"/></linearGradient></defs><rect width="192" height="192" rx="44" fill="#03070f"/><path d="M28 103C42 57 79 32 115 39c26 5 43 24 49 48" fill="none" stroke="#087cff" stroke-width="7" stroke-linecap="round"/><path d="M164 91c-13 45-51 70-88 62-25-5-41-22-48-45" fill="none" stroke="#fff" stroke-width="4" opacity=".75" stroke-linecap="round"/><path d="M55 42h22v45l19-31 20 10-27 39 27 43H92L73 117v31H53V42z" fill="url(#b)"/><path d="M104 42h24v43l-12 17-12-17z" fill="#1687ff"/><path d="M151 38l4 11 11 4-11 4-4 11-4-11-11-4 11-4z" fill="#fff"/></svg>